<svg width="740" height="253" viewBox="0 0 740 253" fill="none" xmlns="http://www.w3.org/2000/svg">
<g clip-path="url(#clip0_2_44)">
<path d="M157.069 0.326475C158.574 0.0619881 158.522 0.010734 160.083 0.435305C161.099 3.40983 160.975 38.0348 161.049 43.7023C187.553 35.0976 219.039 42.967 237.589 63.9203C240.787 67.532 243.578 71.3152 246.444 75.1908C243.577 67.9047 239.793 60.3928 240.211 52.2196C240.828 40.1804 250.929 31.9776 262.887 33.1102C270.999 33.8783 275.276 38.0854 280.227 44.192C280.894 43.0879 281.587 41.9996 282.304 40.9271C285.473 36.2448 290.38 33.0203 295.936 31.9712C302.874 30.6906 308.084 32.7324 313.628 36.6225C315.489 30.6564 317.185 24.0556 321.397 19.6131C330.457 10.2156 348.132 11.283 354.344 23.5469C357.521 29.1315 357.597 35.2203 357.654 41.5307C357.755 52.4829 357.837 63.4907 357.913 74.4694C368.595 72.4681 379.271 70.3901 389.921 68.2369C384.504 60.5845 379.037 52.2177 373.753 44.416L442.293 44.473C453.791 44.4761 466.441 44.6267 477.844 44.3161C490.019 43.9839 497.176 36.875 511.598 37.5476C527.172 38.2746 534.924 41.7066 545.738 52.6392C561.717 43.2119 574.633 40.8379 592.839 39.7698C628.744 37.6634 668.46 48.4447 677.079 88.7283C678.692 96.244 679.116 102.55 679.445 110.29C705.669 101.677 732.64 114.635 738.499 142.425C741.404 156.073 738.746 170.315 731.121 181.999C708.175 217.038 643.135 224.194 609.57 201.796C607.279 203.49 605.046 205.111 602.571 206.539C587.726 215.039 570.083 217.221 553.611 212.597C518.42 203.021 505.137 171.563 514.806 137.933C516.578 133.08 518.793 129.245 521.236 124.721C506.744 126.515 498.486 125.233 486.216 117.609C485.438 132.731 485.773 169.036 492.595 182.707C494.563 186.643 508.187 206.216 511.623 211.418L373.98 211.425C380.973 200.164 393.167 186.311 395.99 174.1L379.53 174.158C384.219 192.36 375.423 204.256 356.489 204.058C356.186 219.116 359.66 244.575 342.49 250.818C337.055 252.847 331.033 252.615 325.77 250.174C318.781 246.867 315.762 241.107 313.408 234.023C309.037 220.874 304.893 207.652 300.312 194.572C296.668 197.426 288.752 204.024 285.248 206.033C280.279 208.825 274.416 209.57 268.906 208.111C263.41 206.625 258.764 202.953 256.048 197.95C250.595 187.852 255.996 175.751 259.223 165.26L253.204 164.646C251.16 169.509 249.093 173.7 246.401 178.218C226.173 212.171 175.359 225.439 141.574 204.063C135.967 207.433 129.806 209.784 123.378 211.007C114.414 212.663 84.0795 211.959 73.0667 211.946L73.0205 108.083C66.3101 112.382 59.3157 115.018 51.3473 115.777C39.4239 117.01 27.5048 113.398 18.2727 105.753C7.87814 97.128 1.76327 83.9992 0.545741 70.6654C-0.779369 54.9474 4.16734 39.3439 14.3056 27.2592C40.5294 -4.06794 87.2126 1.29709 123.465 1.98488C135.393 2.2114 145.234 1.33254 157.069 0.326475Z" fill="#EA2134"/>
<path d="M82.069 19.9332C99.3062 18.6311 122.527 21.2051 142.205 20.2319L142.884 83.9796C146.602 79.0062 148.526 74.6491 153.359 69.9732C161.698 61.8386 172.134 58.7173 183.553 58.8058C222.37 59.4892 241.911 93.1119 241.48 128.354C241.001 167.436 216.869 196.771 175.847 195.649C159.1 195.19 151.971 189.683 140.922 178.055C137.908 183.311 136.728 184.636 131.838 188.239C120.454 195.107 104.977 193.361 91.6884 193.37C91.2119 149.445 92.3149 105.039 91.3834 61.1135C91.1973 52.35 89.0426 39.1415 82.05 33.3829C69.6912 23.2052 50.984 33.3828 58.817 49.4514C63.3144 57.6106 71.4068 61.7152 72.2547 72.7983C73.2634 85.9885 61.7836 96.4699 49.34 97.4127C42.1411 97.9847 35.0188 95.6037 29.6114 90.8176C14.4935 77.4984 16.2363 52.5056 29.3715 38.3733C43.2529 23.4387 62.8315 20.8336 82.069 19.9332Z" fill="#89D1D0"/>
<path d="M160.75 78.0362C169.108 77.7141 175.4 82.1617 178.803 89.7091C188.482 111.17 191.385 172.619 167.068 184.416C149.007 186.338 144.085 163.862 143.087 149.975C141.859 132.861 137.904 82.928 160.75 78.0362Z" fill="#EA2134"/>
<path d="M591.174 58.5141C602.438 57.0658 618.562 58.7774 629.763 62.1151C673.838 75.2502 656.81 124.903 660.632 158.575C661.6 167.099 661.29 182.093 671.807 185.289C676.977 186.861 684.362 183.091 685.343 177.38C686.387 164.054 669.649 157.138 673.111 142.545C676.11 129.915 689.089 124.147 701.011 126.663C707.536 128.04 713.225 131.983 716.806 137.603C727.412 154.162 718.072 174.531 702.366 184.295C679.945 198.232 629.453 203.81 613.462 178.496C612.095 175.661 611.342 172.929 610.418 169.927C608.57 173.534 606.76 177.111 604.356 180.392C590.605 199.183 561.223 201.215 543.352 187.093C535.854 181.193 531.089 172.481 530.165 162.979C525.431 117.612 577.398 111.72 609.836 108.746C609.867 94.5963 611.589 63.4527 590.225 65.9185C568.893 68.3793 601.021 91.5782 579.366 103.802C558.16 115.769 533.316 93.7269 549.984 73.6721C559.299 62.4599 577.474 59.6803 591.174 58.5141Z" fill="#89D1D0"/>
<path d="M608.69 115.366L609.209 115.591C610.823 118.541 609.697 146.254 609.266 151.111C608.26 162.566 601.489 180.311 586.972 168.962C577.486 157.892 580.239 139.336 587.953 128.05C593.345 120.17 599.578 116.995 608.69 115.366Z" fill="#EA2134"/>
<path d="M335.765 31.5137C336.719 31.8864 337.424 32.1503 338.15 32.8938C339.828 34.6104 339.486 89.604 339.554 97.0754C358.521 93.4074 377.67 89.4655 396.692 85.9847C399.293 85.5083 401.761 84.9546 403.311 87.2186C402.786 90.2386 398.033 92.9348 395.445 94.8045C380.777 105.401 366.133 116.038 351.484 126.667C360.615 132.715 371.544 137.531 380.935 143.28C384.694 145.582 394.964 149.718 395.173 154.355C392.186 156.553 360.508 155.545 354.163 155.509C355.926 161.129 362.805 179.994 361.216 184.432L360.033 184.881C355.54 183.328 342.875 168.542 338.955 164.306C338.601 172.545 337.993 230.506 336.179 232.777C334.152 233.394 335.094 233.474 333.252 232.667C329.378 227.117 315.637 181.488 312.591 172.005L309.637 163.853C301.065 170.547 284.852 183.931 275.035 189.869C274.372 190.27 273.928 189.71 273.088 189.173C272.864 188.652 272.639 188.13 272.414 187.61C274.645 176.943 283.266 148.672 285.879 140.027C279.995 141.295 259.77 147.177 255.645 145.551L255.36 144.254C256.951 139.174 276.363 120.621 281.281 115.633C278.581 108.783 258.432 56.6628 259.022 53.1827C260.446 51.6255 259.768 51.9064 261.55 51.7381C264.694 53.9331 273.081 64.7885 275.894 68.2502C283.992 78.3665 292.207 88.3879 300.539 98.3125L299.072 78.8936C298.604 72.4953 296.112 53.6705 299.42 49.8399L300.345 50.2043C304.361 55.1771 313.406 82.4521 316.919 90.5816C319.135 82.5685 332.616 35.183 335.765 31.5137Z" fill="white"/>
<path d="M506.023 56.5198C513.826 56.0604 519.61 55.9104 526.476 60.4605C531.987 64.1152 535.784 69.8384 537.012 76.3328C538.303 83.0444 536.822 89.9938 532.905 95.5942C528.88 101.365 523.084 105.511 516.401 106.409C488.823 110.118 491.171 85.712 486.184 82.2256C470.934 78.3038 467.244 115.005 467.358 124.933C467.599 146.668 467.409 172.985 476.528 192.992L440.559 192.977L409.026 192.968C409.804 191.476 410.487 189.94 411.082 188.367C420.853 162.47 421.176 89.6439 409.184 63.2629L467.352 63.2534L467.308 90.5095C475.395 71.4456 485.197 60.5307 506.023 56.5198Z" fill="#89D1D0"/>
</g>
<defs>
<clipPath id="clip0_2_44">
<rect width="740" height="253" fill="white"/>
</clipPath>
</defs>
</svg>
